<?xml version="1.0" encoding="UTF-8" standalone="no"?>
<!DOCTYPE svg PUBLIC "-//W3C//DTD SVG 1.1//EN" "http://www.w3.org/Graphics/SVG/1.1/DTD/svg11.dtd">
<svg width="100%" height="100%" viewBox="0 0 278 278" version="1.1" xmlns="http://www.w3.org/2000/svg" xmlns:xlink="http://www.w3.org/1999/xlink" xml:space="preserve" style="fill-rule:evenodd;clip-rule:evenodd;stroke-linejoin:round;stroke-miterlimit:1.41421;">
    <g transform="matrix(1,0,0,1,62.7902,74.2273)">
        <g>
            <g transform="matrix(1.20072,0,0,1.20072,-12.4807,-15.5314)">
                <circle cx="68.693" cy="71.234" r="57.882" style="fill:rgb(255,76,0);"/>
            </g>
            <g transform="matrix(2.18486,-2.6963e-33,1.2326e-32,2.18486,-255.998,-161.014)">
                <clipPath id="_clip1">
                    <circle cx="149.207" cy="105.734" r="31.81"/>
                </clipPath>
                <g clip-path="url(#_clip1)">
                    <path d="M152.038,130.635L152.038,166.937L215.645,103.331L152.038,130.635Z" style="fill:url(#_Linear2);fill-rule:nonzero;"/>
                    <path d="M126.68,141.58L152.035,166.937L152.038,130.635L126.68,141.58Z" style="fill:url(#_Linear3);fill-rule:nonzero;"/>
                    <path d="M152.038,130.635L215.645,103.33L152.038,87.58L152.038,130.635Z" style="fill:url(#_Linear4);fill-rule:nonzero;"/>
                    <path d="M126.68,141.58L152.038,130.635L152.038,87.58L140.872,84.814L126.68,141.58Z" style="fill:url(#_Linear5);fill-rule:nonzero;"/>
                    <path d="M88.43,103.33L126.68,141.58L140.872,84.814L113.679,78.081L88.43,103.33Z" style="fill:url(#_Linear6);fill-rule:nonzero;"/>
                    <path d="M113.679,78.081L140.872,84.814L152.035,39.722L113.679,78.081Z" style="fill:url(#_Linear7);fill-rule:nonzero;"/>
                    <path d="M140.864,84.843L152.038,87.58L152.035,39.722L140.864,84.843Z" style="fill:url(#_Linear8);fill-rule:nonzero;"/>
                    <path d="M152.038,87.58L215.645,103.33L152.038,39.722L152.038,87.58Z" style="fill:url(#_Linear9);fill-rule:nonzero;"/>
                </g>
            </g>
            <g transform="matrix(1,0,0,1,-0.277615,-2.13247)">
                <path d="M45.415,29.801C44.898,29.811 44.388,29.913 43.911,30.114C42.913,30.536 42.111,31.368 41.726,32.38C41.56,32.818 41.476,33.281 41.467,33.748C41.435,38.8 41.372,43.853 41.468,48.904C41.487,49.501 41.631,50.087 41.904,50.62C42.153,51.106 42.502,51.539 42.924,51.887C43.248,52.155 43.613,52.367 44.004,52.524C45.055,52.947 46.281,52.878 47.286,52.363C47.658,52.172 47.999,51.923 48.294,51.628C48.635,51.287 48.915,50.885 49.113,50.445C49.34,49.943 49.456,49.402 49.466,48.852C49.498,43.8 49.561,38.748 49.465,33.697C49.451,33.246 49.367,32.802 49.207,32.38C48.834,31.398 48.068,30.586 47.111,30.153C46.641,29.941 46.136,29.826 45.622,29.803C45.553,29.801 45.484,29.8 45.415,29.801Z" style="fill:white;"/>
                <g transform="matrix(1,0,0,1,24.8672,0)">
                    <path d="M45.415,29.801C44.898,29.811 44.388,29.913 43.911,30.114C42.913,30.536 42.111,31.368 41.726,32.38C41.56,32.818 41.476,33.281 41.467,33.748C41.435,38.8 41.372,43.853 41.468,48.904C41.487,49.501 41.631,50.087 41.904,50.62C42.153,51.106 42.502,51.539 42.924,51.887C43.248,52.155 43.613,52.367 44.004,52.524C45.055,52.947 46.281,52.878 47.286,52.363C47.658,52.172 47.999,51.923 48.294,51.628C48.635,51.287 48.915,50.885 49.113,50.445C49.34,49.943 49.456,49.402 49.466,48.852C49.498,43.8 49.561,38.748 49.465,33.697C49.451,33.246 49.367,32.802 49.207,32.38C48.834,31.398 48.068,30.586 47.111,30.153C46.641,29.941 46.136,29.826 45.622,29.803C45.553,29.801 45.484,29.8 45.415,29.801Z" style="fill:white;"/>
                </g>
                <g transform="matrix(1,0,0,1,48.7119,0)">
                    <path d="M45.415,29.801C44.898,29.811 44.388,29.913 43.911,30.114C42.913,30.536 42.111,31.368 41.726,32.38C41.56,32.818 41.476,33.281 41.467,33.748C41.435,38.8 41.372,43.853 41.468,48.904C41.487,49.501 41.631,50.087 41.904,50.62C42.153,51.106 42.502,51.539 42.924,51.887C43.248,52.155 43.613,52.367 44.004,52.524C45.055,52.947 46.281,52.878 47.286,52.363C47.658,52.172 47.999,51.923 48.294,51.628C48.635,51.287 48.915,50.885 49.113,50.445C49.34,49.943 49.456,49.402 49.466,48.852C49.498,43.8 49.561,38.748 49.465,33.697C49.451,33.246 49.367,32.802 49.207,32.38C48.834,31.398 48.068,30.586 47.111,30.153C46.641,29.941 46.136,29.826 45.622,29.803C45.553,29.801 45.484,29.8 45.415,29.801Z" style="fill:white;"/>
                </g>
                <path d="M39.396,41.56C39.398,44.025 39.422,46.49 39.469,48.955C39.494,49.754 39.667,50.54 39.997,51.269C40.295,51.928 40.713,52.531 41.225,53.042C41.667,53.485 42.178,53.858 42.735,54.143C43.238,54.401 43.777,54.586 44.332,54.693C44.71,54.765 45.094,54.801 45.478,54.8L45.535,54.799C46.36,54.789 47.182,54.611 47.936,54.27C48.463,54.031 48.955,53.715 49.393,53.336C50.011,52.8 50.519,52.139 50.874,51.402C51.131,50.869 51.308,50.297 51.397,49.713C51.436,49.461 51.457,49.209 51.465,48.955C51.512,46.49 51.536,44.025 51.537,41.56L64.263,41.56L64.263,41.701C64.266,44.119 64.29,46.537 64.336,48.955C64.361,49.754 64.535,50.54 64.865,51.269C65.163,51.928 65.581,52.531 66.092,53.042C66.534,53.485 67.045,53.858 67.602,54.143C68.105,54.401 68.644,54.586 69.199,54.693C69.577,54.765 69.961,54.801 70.345,54.8L70.403,54.799C71.227,54.789 72.049,54.611 72.803,54.27C73.33,54.031 73.822,53.715 74.26,53.336C74.878,52.8 75.386,52.139 75.741,51.402C75.998,50.869 76.175,50.297 76.265,49.713C76.303,49.461 76.324,49.209 76.332,48.955C76.378,46.527 76.402,44.099 76.404,41.671L76.405,41.56L88.108,41.56C88.109,44.025 88.134,46.49 88.18,48.955C88.206,49.754 88.379,50.54 88.709,51.269C89.007,51.928 89.425,52.531 89.937,53.042C90.379,53.485 90.89,53.858 91.447,54.143C91.95,54.401 92.489,54.586 93.044,54.693C93.422,54.765 93.806,54.801 94.19,54.8L94.247,54.799C95.072,54.789 95.894,54.611 96.648,54.27C97.175,54.031 97.667,53.715 98.105,53.336C98.723,52.8 99.231,52.139 99.586,51.402C99.843,50.869 100.02,50.297 100.109,49.713C100.148,49.461 100.169,49.209 100.177,48.955C100.223,46.527 100.247,44.099 100.249,41.671L100.249,41.56L106.069,41.56C111.826,41.56 116.5,46.234 116.5,51.991L116.5,104.033C116.5,109.79 111.826,114.464 106.069,114.464L34.486,114.464C28.729,114.464 24.055,109.79 24.055,104.033L24.055,51.991C24.055,46.234 28.729,41.56 34.486,41.56L39.396,41.56ZM49.252,85.881L41.863,85.881C39.823,85.881 38.168,87.537 38.168,89.576L38.168,96.966C38.168,99.005 39.823,100.661 41.863,100.661L49.252,100.661C51.291,100.661 52.947,99.005 52.947,96.966L52.947,89.576C52.947,87.537 51.292,85.881 49.252,85.881ZM73.481,85.881L66.092,85.881C64.053,85.881 62.397,87.537 62.397,89.576L62.397,96.966C62.397,99.005 64.053,100.661 66.092,100.661L73.481,100.661C75.521,100.661 77.176,99.005 77.176,96.966L77.176,89.576C77.176,87.537 75.521,85.881 73.481,85.881ZM97.711,85.881L90.321,85.881C88.282,85.881 86.626,87.537 86.626,89.576L86.626,96.966C86.626,99.005 88.282,100.661 90.321,100.661L97.711,100.661C99.75,100.661 101.406,99.005 101.406,96.966L101.406,89.576C101.406,87.537 99.75,85.881 97.711,85.881ZM52.947,68.796C52.947,66.757 51.291,65.101 49.252,65.101L41.863,65.101C39.823,65.101 38.168,66.757 38.168,68.796L38.168,76.186C38.168,78.225 39.823,79.88 41.863,79.88L49.252,79.88C51.291,79.88 52.947,78.225 52.947,76.186L52.947,68.796ZM77.176,68.796C77.176,66.757 75.521,65.101 73.481,65.101L66.092,65.101C64.053,65.101 62.397,66.757 62.397,68.796L62.397,76.186C62.397,78.225 64.053,79.88 66.092,79.88L73.481,79.88C75.521,79.88 77.176,78.225 77.176,76.186L77.176,68.796ZM101.406,68.796C101.406,66.757 99.75,65.101 97.711,65.101L90.321,65.101C88.282,65.101 86.626,66.757 86.626,68.796L86.626,76.186C86.626,78.225 88.282,79.88 90.321,79.88L97.711,79.88C99.75,79.88 101.406,78.225 101.406,76.186L101.406,68.796ZM41.419,41.56L49.513,41.56L49.512,41.701C49.503,44.085 49.481,46.469 49.466,48.852C49.456,49.402 49.34,49.943 49.113,50.445C48.915,50.885 48.635,51.287 48.294,51.628C47.999,51.923 47.658,52.172 47.286,52.363C46.736,52.645 46.12,52.793 45.503,52.8L45.451,52.8C44.957,52.8 44.464,52.709 44.004,52.524C43.613,52.367 43.248,52.155 42.924,51.887C42.502,51.539 42.153,51.106 41.904,50.62C41.631,50.087 41.487,49.501 41.468,48.904C41.421,46.456 41.412,44.008 41.419,41.56ZM66.286,41.621L66.286,41.56L74.38,41.56L74.38,41.652C74.371,44.052 74.349,46.452 74.333,48.852C74.323,49.402 74.208,49.943 73.981,50.445C73.782,50.885 73.503,51.287 73.161,51.628C72.866,51.923 72.525,52.172 72.153,52.363C71.603,52.645 70.988,52.793 70.371,52.8L70.318,52.8C69.824,52.8 69.331,52.709 68.871,52.524C68.481,52.367 68.116,52.155 67.791,51.887C67.37,51.539 67.02,51.106 66.771,50.62C66.498,50.087 66.354,49.501 66.335,48.904C66.289,46.477 66.28,44.049 66.286,41.621ZM98.225,41.56C98.216,43.991 98.194,46.422 98.178,48.852C98.168,49.402 98.052,49.943 97.825,50.445C97.627,50.885 97.347,51.287 97.006,51.628C96.711,51.923 96.37,52.172 95.998,52.363C95.448,52.645 94.832,52.793 94.215,52.8L94.162,52.8C93.669,52.8 93.175,52.709 92.716,52.524C92.325,52.367 91.96,52.155 91.635,51.887C91.214,51.539 90.865,51.106 90.616,50.62C90.343,50.087 90.199,49.501 90.18,48.904C90.133,46.456 90.124,44.008 90.131,41.56L98.225,41.56Z" style="fill:white;"/>
            </g>
        </g>
    </g>
    <defs>
        <linearGradient id="_Linear2" x1="0" y1="0" x2="1" y2="0" gradientUnits="userSpaceOnUse" gradientTransform="matrix(63.6074,0,0,63.6074,152.038,135.134)"><stop offset="0%" style="stop-color:rgb(228,73,0);stop-opacity:1"/><stop offset="100%" style="stop-color:rgb(218,0,0);stop-opacity:1"/></linearGradient>
        <linearGradient id="_Linear3" x1="0" y1="0" x2="1" y2="0" gradientUnits="userSpaceOnUse" gradientTransform="matrix(25.3584,0,0,25.3584,126.679,148.786)"><stop offset="0%" style="stop-color:rgb(212,45,0);stop-opacity:1"/><stop offset="100%" style="stop-color:rgb(201,5,0);stop-opacity:1"/></linearGradient>
        <linearGradient id="_Linear4" x1="0" y1="0" x2="1" y2="0" gradientUnits="userSpaceOnUse" gradientTransform="matrix(63.6074,0,0,63.6074,152.038,109.107)"><stop offset="0%" style="stop-color:rgb(255,108,0);stop-opacity:1"/><stop offset="100%" style="stop-color:rgb(255,13,0);stop-opacity:1"/></linearGradient>
        <linearGradient id="_Linear5" x1="0" y1="0" x2="1" y2="0" gradientUnits="userSpaceOnUse" gradientTransform="matrix(30.5244,0,0,30.5244,122.429,113.197)"><stop offset="0%" style="stop-color:rgb(255,72,0);stop-opacity:1"/><stop offset="100%" style="stop-color:rgb(255,11,0);stop-opacity:1"/></linearGradient>
        <linearGradient id="_Linear6" x1="0" y1="0" x2="1" y2="0" gradientUnits="userSpaceOnUse" gradientTransform="matrix(48.7745,0,0,48.7745,91.1792,109.83)"><stop offset="0%" style="stop-color:rgb(231,104,0);stop-opacity:1"/><stop offset="100%" style="stop-color:rgb(209,32,0);stop-opacity:1"/></linearGradient>
        <linearGradient id="_Linear7" x1="0" y1="0" x2="1" y2="0" gradientUnits="userSpaceOnUse" gradientTransform="matrix(38.3564,0,0,38.3564,113.679,62.2686)"><stop offset="0%" style="stop-color:rgb(214,36,0);stop-opacity:1"/><stop offset="100%" style="stop-color:rgb(195,0,0);stop-opacity:1"/></linearGradient>
        <linearGradient id="_Linear8" x1="0" y1="0" x2="1" y2="0" gradientUnits="userSpaceOnUse" gradientTransform="matrix(11.1729,0,0,11.1729,140.865,63.6509)"><stop offset="0%" style="stop-color:rgb(247,5,0);stop-opacity:1"/><stop offset="100%" style="stop-color:rgb(247,5,0);stop-opacity:1"/></linearGradient>
        <linearGradient id="_Linear9" x1="0" y1="0" x2="1" y2="0" gradientUnits="userSpaceOnUse" gradientTransform="matrix(63.6074,0,0,63.6074,152.038,71.5259)"><stop offset="0%" style="stop-color:rgb(250,58,0);stop-opacity:1"/><stop offset="100%" style="stop-color:rgb(255,0,0);stop-opacity:1"/></linearGradient>
    </defs>
</svg>
