<?xml version="1.0" encoding="UTF-8" standalone="no"?>
<!DOCTYPE svg PUBLIC "-//W3C//DTD SVG 1.1//EN" "http://www.w3.org/Graphics/SVG/1.1/DTD/svg11.dtd">
<svg width="100%" height="100%" viewBox="0 0 278 278" version="1.1" xmlns="http://www.w3.org/2000/svg" xmlns:xlink="http://www.w3.org/1999/xlink" xml:space="preserve" style="fill-rule:evenodd;clip-rule:evenodd;stroke-linejoin:round;stroke-miterlimit:1.41421;">
    <g transform="matrix(1,0,0,1,62.7902,74.2273)">
        <g>
            <g transform="matrix(1.20072,0,0,1.20072,-12.4807,-15.5314)">
                <circle cx="68.693" cy="71.234" r="57.882" style="fill:rgb(255,76,0);"/>
            </g>
            <g transform="matrix(2.18486,-2.6963e-33,1.2326e-32,2.18486,-255.998,-161.014)">
                <clipPath id="_clip1">
                    <circle cx="149.207" cy="105.734" r="31.81"/>
                </clipPath>
                <g clip-path="url(#_clip1)">
                    <path d="M152.038,130.635L152.038,166.937L215.645,103.331L152.038,130.635Z" style="fill:url(#_Linear2);fill-rule:nonzero;"/>
                    <path d="M126.68,141.58L152.035,166.937L152.038,130.635L126.68,141.58Z" style="fill:url(#_Linear3);fill-rule:nonzero;"/>
                    <path d="M152.038,130.635L215.645,103.33L152.038,87.58L152.038,130.635Z" style="fill:url(#_Linear4);fill-rule:nonzero;"/>
                    <path d="M126.68,141.58L152.038,130.635L152.038,87.58L140.872,84.814L126.68,141.58Z" style="fill:url(#_Linear5);fill-rule:nonzero;"/>
                    <path d="M88.43,103.33L126.68,141.58L140.872,84.814L113.679,78.081L88.43,103.33Z" style="fill:url(#_Linear6);fill-rule:nonzero;"/>
                    <path d="M113.679,78.081L140.872,84.814L152.035,39.722L113.679,78.081Z" style="fill:url(#_Linear7);fill-rule:nonzero;"/>
                    <path d="M140.864,84.843L152.038,87.58L152.035,39.722L140.864,84.843Z" style="fill:url(#_Linear8);fill-rule:nonzero;"/>
                    <path d="M152.038,87.58L215.645,103.33L152.038,39.722L152.038,87.58Z" style="fill:url(#_Linear9);fill-rule:nonzero;"/>
                </g>
            </g>
        </g>
        <g transform="matrix(1,0,0,1,-3,3.69131)">
            <g transform="matrix(1.01302,0.448599,-0.428883,0.968495,27.7564,-26.8363)">
                <path d="M41.048,42.539C42.329,41.826 43.804,41.42 45.373,41.42L94.206,41.42C94.65,41.42 95.086,41.452 95.512,41.515C100.086,41.775 113.547,45.344 118.932,77.51C120.635,87.684 113.758,97.326 103.585,99.029C93.411,100.732 83.769,93.855 82.065,83.682C81.676,81.355 81.375,79.155 81.154,77.077L81.114,77.077C80.591,73.328 76.021,70.393 70.468,70.393C64.915,70.393 60.345,73.328 59.822,77.077L59.795,77.077C59.574,79.155 59.273,81.355 58.884,83.682C57.18,93.855 47.538,100.732 37.364,99.029C27.191,97.326 20.314,87.684 22.017,77.51C26.157,52.781 35.07,44.954 41.048,42.539ZM47,61.748L47,57.748C47,56.092 45.656,54.748 44,54.748C42.344,54.748 41,56.092 41,57.748L41,61.748L37,61.748C35.344,61.748 34,63.092 34,64.748C34,66.403 35.344,67.747 37,67.748L41,67.748L41,71.748C41,73.403 42.344,74.748 44,74.748C45.656,74.748 47,73.403 47,71.748L47,67.748L51,67.748C52.656,67.747 54,66.403 54,64.748C54,63.092 52.656,61.748 51,61.748L47,61.748ZM104,65C106.208,65 108,66.792 108,69C108,71.208 106.208,73 104,73C101.792,73 100,71.208 100,69C100,66.792 101.792,65 104,65ZM92,62C94.208,62 96,63.792 96,66C96,68.208 94.208,70 92,70C89.792,70 88,68.208 88,66C88,63.792 89.792,62 92,62ZM100,52.748C102.208,52.748 104,54.54 104,56.748C104,58.955 102.208,60.748 100,60.748C97.792,60.748 96,58.955 96,56.748C96,54.54 97.792,52.748 100,52.748ZM66,46C66,44.896 65.104,44 64,44L56,44C54.896,44 54,44.896 54,46C54,47.104 54.896,48 56,48L64,48C65.104,48 66,47.104 66,46ZM85.185,44L77.185,44C76.081,44 75.185,44.896 75.185,46C75.185,47.104 76.081,48 77.185,48L85.185,48C86.288,48 87.185,47.104 87.185,46C87.185,44.896 86.288,44 85.185,44Z" style="fill:white;"/>
            </g>
            <g transform="matrix(1,0,0,1,-4.8592,-3.48919)">
                <path d="M88.074,9.825C88.772,9.837 89.47,9.887 90.158,10.012L90.194,10.019L89.806,11.981C89.713,11.963 89.619,11.948 89.525,11.934C89.036,11.865 88.544,11.832 88.05,11.825C87.699,11.82 87.347,11.834 86.997,11.863C85.685,11.972 84.371,12.321 83.251,13.032C82.904,13.252 82.577,13.507 82.279,13.791C82.058,14.003 81.852,14.232 81.664,14.474C81.535,14.639 81.414,14.811 81.302,14.988C80.475,16.29 80.114,17.824 79.971,19.343C79.946,19.608 79.926,19.874 79.913,20.14C79.845,21.536 79.949,22.962 80.402,24.292C80.595,24.857 80.851,25.399 81.166,25.905C81.46,26.378 81.805,26.817 82.183,27.226C83.133,28.255 84.272,29.085 85.359,29.959C85.534,30.103 85.709,30.247 85.882,30.393C86.302,30.753 86.711,31.127 87.089,31.532C87.616,32.099 88.081,32.726 88.437,33.415C88.603,33.736 88.745,34.069 88.862,34.412C88.961,34.702 89.042,34.998 89.116,35.295C89.256,35.856 89.362,36.424 89.435,36.997C89.693,39.024 89.537,41.093 89.063,43.077C88.801,44.177 88.445,45.262 87.971,46.29L87.93,46.376L87.897,46.443L86.103,45.557C86.137,45.488 86.17,45.419 86.202,45.35C86.266,45.207 86.327,45.063 86.386,44.919C86.78,43.937 87.077,42.917 87.276,41.878C87.583,40.277 87.655,38.624 87.418,37.007C87.357,36.594 87.277,36.184 87.176,35.779C87.106,35.5 87.03,35.22 86.931,34.949C86.803,34.6 86.639,34.266 86.443,33.95C85.955,33.164 85.285,32.512 84.585,31.916C84.02,31.434 83.431,30.982 82.851,30.52C82.635,30.345 82.419,30.168 82.206,29.99C81.567,29.448 80.953,28.877 80.409,28.24C79.771,27.495 79.234,26.666 78.835,25.769C78.689,25.441 78.563,25.106 78.452,24.765C77.958,23.249 77.838,21.627 77.916,20.042C77.964,19.061 78.077,18.08 78.303,17.123C78.589,15.905 79.059,14.722 79.766,13.685C79.983,13.365 80.221,13.061 80.48,12.774C80.799,12.421 81.149,12.096 81.525,11.804C82.059,11.388 82.645,11.039 83.263,10.759C84.603,10.152 86.067,9.88 87.532,9.83C87.712,9.826 87.893,9.824 88.074,9.825Z" style="fill:white;fill-rule:nonzero;"/>
            </g>
        </g>
    </g>
    <defs>
        <linearGradient id="_Linear2" x1="0" y1="0" x2="1" y2="0" gradientUnits="userSpaceOnUse" gradientTransform="matrix(63.6074,0,0,63.6074,152.038,135.134)"><stop offset="0%" style="stop-color:rgb(228,73,0);stop-opacity:1"/><stop offset="100%" style="stop-color:rgb(218,0,0);stop-opacity:1"/></linearGradient>
        <linearGradient id="_Linear3" x1="0" y1="0" x2="1" y2="0" gradientUnits="userSpaceOnUse" gradientTransform="matrix(25.3584,0,0,25.3584,126.679,148.786)"><stop offset="0%" style="stop-color:rgb(212,45,0);stop-opacity:1"/><stop offset="100%" style="stop-color:rgb(201,5,0);stop-opacity:1"/></linearGradient>
        <linearGradient id="_Linear4" x1="0" y1="0" x2="1" y2="0" gradientUnits="userSpaceOnUse" gradientTransform="matrix(63.6074,0,0,63.6074,152.038,109.107)"><stop offset="0%" style="stop-color:rgb(255,108,0);stop-opacity:1"/><stop offset="100%" style="stop-color:rgb(255,13,0);stop-opacity:1"/></linearGradient>
        <linearGradient id="_Linear5" x1="0" y1="0" x2="1" y2="0" gradientUnits="userSpaceOnUse" gradientTransform="matrix(30.5244,0,0,30.5244,122.429,113.197)"><stop offset="0%" style="stop-color:rgb(255,72,0);stop-opacity:1"/><stop offset="100%" style="stop-color:rgb(255,11,0);stop-opacity:1"/></linearGradient>
        <linearGradient id="_Linear6" x1="0" y1="0" x2="1" y2="0" gradientUnits="userSpaceOnUse" gradientTransform="matrix(48.7745,0,0,48.7745,91.1792,109.83)"><stop offset="0%" style="stop-color:rgb(231,104,0);stop-opacity:1"/><stop offset="100%" style="stop-color:rgb(209,32,0);stop-opacity:1"/></linearGradient>
        <linearGradient id="_Linear7" x1="0" y1="0" x2="1" y2="0" gradientUnits="userSpaceOnUse" gradientTransform="matrix(38.3564,0,0,38.3564,113.679,62.2686)"><stop offset="0%" style="stop-color:rgb(214,36,0);stop-opacity:1"/><stop offset="100%" style="stop-color:rgb(195,0,0);stop-opacity:1"/></linearGradient>
        <linearGradient id="_Linear8" x1="0" y1="0" x2="1" y2="0" gradientUnits="userSpaceOnUse" gradientTransform="matrix(11.1729,0,0,11.1729,140.865,63.6509)"><stop offset="0%" style="stop-color:rgb(247,5,0);stop-opacity:1"/><stop offset="100%" style="stop-color:rgb(247,5,0);stop-opacity:1"/></linearGradient>
        <linearGradient id="_Linear9" x1="0" y1="0" x2="1" y2="0" gradientUnits="userSpaceOnUse" gradientTransform="matrix(63.6074,0,0,63.6074,152.038,71.5259)"><stop offset="0%" style="stop-color:rgb(250,58,0);stop-opacity:1"/><stop offset="100%" style="stop-color:rgb(255,0,0);stop-opacity:1"/></linearGradient>
    </defs>
</svg>
