<?xml version="1.0" encoding="UTF-8" standalone="no"?>
<!DOCTYPE svg PUBLIC "-//W3C//DTD SVG 1.1//EN" "http://www.w3.org/Graphics/SVG/1.1/DTD/svg11.dtd">
<svg width="100%" height="100%" viewBox="0 0 600 161" version="1.1" xmlns="http://www.w3.org/2000/svg" xmlns:xlink="http://www.w3.org/1999/xlink" xml:space="preserve" style="fill-rule:evenodd;clip-rule:evenodd;stroke-linejoin:round;stroke-miterlimit:1.41421;">
    <g transform="matrix(1,0,0,1,-50.443,-28.6266)">
        <g transform="matrix(0.90737,0,0,0.90737,31.9562,10.4456)">
            <path d="M177.462,196.963C169.15,196.963 162.64,190.468 162.64,182.176C162.64,173.885 169.151,167.391 177.462,167.391C182.793,167.391 187.876,170.08 190.41,174.242L191.336,175.763L187.769,175.763L187.469,175.372C186.461,174.061 185.292,172.992 183.993,172.194C182.092,170.994 179.837,170.362 177.462,170.362C170.768,170.362 165.72,175.441 165.72,182.176C165.72,188.911 170.768,193.99 177.462,193.99C180.366,193.99 183.198,192.995 185.435,191.188C187.143,189.806 188.417,188.036 189.05,186.199L173.474,186.199L173.474,183.228L192.755,183.228L192.638,184.333C192.481,185.817 192.059,187.253 191.385,188.6C188.929,193.676 183.461,196.963 177.462,196.963Z" style="fill:white;fill-rule:nonzero;"/>
            <path d="M228.397,196.494L224.401,187.207L211.788,187.207L207.792,196.494L204.465,196.494L216.734,167.857L219.456,167.857L231.725,196.494L228.397,196.494ZM223.083,184.236L218.08,172.433L213.104,184.236L223.083,184.236Z" style="fill:white;fill-rule:nonzero;"/>
            <path d="M273.253,196.494L273.253,174.228L262.275,196.494L260.421,196.494L249.407,174.217L249.407,196.494L246.327,196.494L246.327,167.857L249.677,167.857L261.365,191.508L273.02,167.857L276.333,167.857L276.333,196.494L273.253,196.494Z" style="fill:white;fill-rule:nonzero;"/>
            <path d="M294.187,196.494L294.187,167.857L310.8,167.857L310.8,170.83L297.267,170.83L297.267,180.6L310.8,180.6L310.8,183.572L297.267,183.572L297.267,193.523L310.8,193.523L310.8,196.494L294.187,196.494Z" style="fill:white;fill-rule:nonzero;"/>
            <path d="M360.2,196.963C356.166,196.963 351.882,194.171 351.499,188.835L351.422,187.764L354.457,187.764L354.568,188.638C355.214,193.733 359.342,193.991 360.164,193.991C362.903,193.991 365.859,191.952 365.859,188.657C365.859,184.951 363.202,183.942 359.991,183.087L359.798,183.035C357.473,182.463 352.072,181.134 352.072,175.339C352.019,173.19 352.736,171.277 354.145,169.834C355.66,168.282 357.907,167.392 360.308,167.392C363.506,167.392 367.485,169.241 368.174,174.453L368.323,175.584L365.271,175.584L365.119,174.768C364.566,171.804 362.969,170.364 360.235,170.364C357.242,170.364 355.151,172.336 355.151,175.159C355.124,178.526 357.672,179.428 361.562,180.419L361.859,180.496C363.61,180.946 368.938,182.313 368.938,188.515C368.94,193.731 364.403,196.963 360.2,196.963Z" style="fill:white;fill-rule:nonzero;"/>
            <path d="M389.325,196.494L389.325,170.83L382.091,170.83L382.091,167.857L399.642,167.857L399.642,170.83L392.405,170.83L392.405,196.494L389.325,196.494Z" style="fill:white;fill-rule:nonzero;"/>
            <path d="M423.841,196.963C421.863,196.963 419.902,196.317 418.316,195.147C414.608,192.547 414.674,188.208 414.707,186.122L414.707,167.858L417.787,167.858L417.787,186.137C417.787,188.657 417.787,190.044 419.235,191.935C420.173,193.165 422.052,193.991 423.914,193.991C425.682,193.991 427.56,193.146 428.482,191.937C429.933,190.044 429.933,188.657 429.933,186.137L429.933,167.858L433.011,167.858L433.011,186.137C433.043,188.207 433.11,192.548 429.382,195.161C427.815,196.317 425.841,196.963 423.841,196.963Z" style="fill:white;fill-rule:nonzero;"/>
            <path d="M450.698,196.494L450.698,167.857L459.221,167.857C463.635,167.857 467.29,169.178 469.791,171.677C472.312,174.158 473.646,177.791 473.646,182.175C473.646,191.141 468.253,196.493 459.22,196.493L450.698,196.493L450.698,196.494ZM459.222,193.523C466.432,193.523 470.568,189.414 470.568,182.248C470.568,178.639 469.575,175.799 467.615,173.807C465.641,171.834 462.816,170.83 459.222,170.83L453.779,170.83L453.779,193.523L459.222,193.523Z" style="fill:white;fill-rule:nonzero;"/>
            <rect x="490.216" y="167.857" width="3.08" height="28.637" style="fill:white;"/>
            <path d="M524.538,196.963C516.226,196.963 509.716,190.468 509.716,182.176C509.716,173.869 516.227,167.391 524.538,167.391C532.849,167.391 539.36,173.885 539.36,182.176C539.36,190.468 532.85,196.963 524.538,196.963ZM524.538,170.361C517.844,170.361 512.796,175.44 512.796,182.175C512.796,188.817 517.954,193.989 524.538,193.989C531.232,193.989 536.28,188.91 536.28,182.175C536.28,175.44 531.232,170.361 524.538,170.361Z" style="fill:white;fill-rule:nonzero;"/>
            <path d="M20.374,75.348L75.091,75.348C97.234,75.348 100.055,89.658 100.055,99.287C100.055,112.605 91.078,124.845 71.756,124.845L51.237,124.845L51.237,139.605L20.374,139.605L20.374,75.348ZM51.237,107.207L61.155,107.207C66.968,107.207 69.191,104.597 69.191,100.638C69.191,96.138 66.797,94.158 61.155,94.158L51.237,94.158L51.237,107.207Z" style="fill:white;fill-rule:nonzero;"/>
            <path d="M199.135,75.348L230.683,75.348L237.009,109.367L237.181,109.367L243.935,75.348L264.795,75.348L271.122,109.367L271.292,109.367L278.132,75.348L308.911,75.348L291.556,139.605L261.974,139.605L254.195,108.286L254.023,108.286L246.329,139.605L216.406,139.605L199.135,75.348Z" style="fill:white;fill-rule:nonzero;"/>
            <path d="M317.919,75.348L386.827,75.348L386.827,95.687L348.782,95.687L348.782,101.807L386.827,101.807L386.827,116.746L348.782,116.746L348.782,122.775L386.827,122.775L386.827,139.605L317.919,139.605L317.919,75.348Z" style="fill:white;fill-rule:nonzero;"/>
            <path d="M399.604,75.348L457.399,75.348C471.249,75.348 479.371,82.098 479.371,94.247C479.371,107.026 469.967,112.246 460.392,113.056L481.594,139.605L445.087,139.605L430.64,118.906L430.468,118.906L430.468,139.605L399.605,139.605L399.605,75.348L399.604,75.348ZM430.468,105.857L439.958,105.857C446.968,105.857 448.507,103.426 448.507,98.657C448.507,94.608 445.943,92.987 440.471,92.987L430.468,92.987L430.468,105.857Z" style="fill:white;fill-rule:nonzero;"/>
            <path d="M589.167,117.287C589.167,137.805 570.7,141.496 552.233,141.496C534.536,141.496 515.128,137.805 515.128,117.287L515.128,62.028L545.991,62.028L545.991,115.486C545.991,121.515 549.411,122.685 552.661,122.685C555.823,122.685 559.073,121.515 559.073,115.486L559.073,75.348L589.167,75.348L589.167,117.287Z" style="fill:white;fill-rule:nonzero;"/>
            <path d="M601.944,75.348L656.661,75.348C678.806,75.348 681.626,89.658 681.626,99.287C681.626,112.605 672.649,124.845 653.327,124.845L632.808,124.845L632.808,139.605L601.944,139.605L601.944,75.348ZM632.809,107.207L642.726,107.207C648.54,107.207 650.763,104.597 650.763,100.638C650.763,96.138 648.368,94.158 642.726,94.158L632.809,94.158L632.809,107.207Z" style="fill:white;fill-rule:nonzero;"/>
            <g>
                <g transform="matrix(0.7071,0.7071,-0.7071,0.7071,117.595,-77.2421)">
                    <rect x="107.06" y="58.352" width="89.956" height="89.955" style="fill:rgb(213,11,4);"/>
                </g>
                <path d="M152.038,166.938L215.645,103.331L152.038,130.635L152.038,166.938Z" style="fill:url(#_Linear1);fill-rule:nonzero;"/>
                <path d="M152.036,166.938L152.038,130.635L126.679,141.58L152.036,166.938Z" style="fill:url(#_Linear2);fill-rule:nonzero;"/>
                <path d="M152.038,130.635L152.038,87.58L215.645,103.33L152.038,130.635Z" style="fill:url(#_Linear3);fill-rule:nonzero;"/>
                <path d="M126.679,141.58L152.038,130.635L152.038,87.58L140.872,84.814L126.679,141.58Z" style="fill:url(#_Linear4);fill-rule:nonzero;"/>
                <path d="M88.429,103.33L126.679,141.58L140.872,84.814L113.679,78.081L88.429,103.33Z" style="fill:url(#_Linear5);fill-rule:nonzero;"/>
                <path d="M113.679,78.081L140.872,84.814L152.036,39.722L113.679,78.081Z" style="fill:url(#_Linear6);fill-rule:nonzero;"/>
                <path d="M140.865,84.843L152.038,87.58L152.036,39.722L140.865,84.843Z" style="fill:url(#_Linear7);fill-rule:nonzero;"/>
                <path d="M152.038,87.58L215.645,103.33L152.038,39.722L152.038,87.58Z" style="fill:url(#_Linear8);fill-rule:nonzero;"/>
            </g>
            <path d="M186.27,81.405L156.825,67.95L185.084,48.248L186.27,81.405Z" style="fill:rgb(244,177,0);fill-rule:nonzero;"/>
            <path d="M217.366,59.278L198.563,66.804L201.836,45.503L217.366,59.278Z" style="fill:rgb(219,43,4);fill-rule:nonzero;"/>
            <path d="M204.106,30.828L194.036,33.561L196.086,20.037L204.106,30.828Z" style="fill:rgb(196,0,0);fill-rule:nonzero;"/>
        </g>
    </g>
    <defs>
        <linearGradient id="_Linear1" x1="0" y1="0" x2="1" y2="0" gradientUnits="userSpaceOnUse" gradientTransform="matrix(63.6074,0,0,63.6074,152.038,135.134)"><stop offset="0%" style="stop-color:rgb(228,73,0);stop-opacity:1"/><stop offset="100%" style="stop-color:rgb(218,0,0);stop-opacity:1"/></linearGradient>
        <linearGradient id="_Linear2" x1="0" y1="0" x2="1" y2="0" gradientUnits="userSpaceOnUse" gradientTransform="matrix(25.3584,0,0,25.3584,126.679,148.786)"><stop offset="0%" style="stop-color:rgb(212,45,0);stop-opacity:1"/><stop offset="100%" style="stop-color:rgb(201,5,0);stop-opacity:1"/></linearGradient>
        <linearGradient id="_Linear3" x1="0" y1="0" x2="1" y2="0" gradientUnits="userSpaceOnUse" gradientTransform="matrix(63.6074,0,0,63.6074,152.038,109.107)"><stop offset="0%" style="stop-color:rgb(255,108,0);stop-opacity:1"/><stop offset="100%" style="stop-color:rgb(255,13,0);stop-opacity:1"/></linearGradient>
        <linearGradient id="_Linear4" x1="0" y1="0" x2="1" y2="0" gradientUnits="userSpaceOnUse" gradientTransform="matrix(30.5244,0,0,30.5244,122.429,113.197)"><stop offset="0%" style="stop-color:rgb(255,72,0);stop-opacity:1"/><stop offset="100%" style="stop-color:rgb(255,11,0);stop-opacity:1"/></linearGradient>
        <linearGradient id="_Linear5" x1="0" y1="0" x2="1" y2="0" gradientUnits="userSpaceOnUse" gradientTransform="matrix(48.7745,0,0,48.7745,91.1792,109.83)"><stop offset="0%" style="stop-color:rgb(231,104,0);stop-opacity:1"/><stop offset="100%" style="stop-color:rgb(209,32,0);stop-opacity:1"/></linearGradient>
        <linearGradient id="_Linear6" x1="0" y1="0" x2="1" y2="0" gradientUnits="userSpaceOnUse" gradientTransform="matrix(38.3564,0,0,38.3564,113.679,62.2686)"><stop offset="0%" style="stop-color:rgb(214,36,0);stop-opacity:1"/><stop offset="100%" style="stop-color:rgb(195,0,0);stop-opacity:1"/></linearGradient>
        <linearGradient id="_Linear7" x1="0" y1="0" x2="1" y2="0" gradientUnits="userSpaceOnUse" gradientTransform="matrix(11.1729,0,0,11.1729,140.865,63.6509)"><stop offset="0%" style="stop-color:rgb(247,5,0);stop-opacity:1"/><stop offset="100%" style="stop-color:rgb(247,5,0);stop-opacity:1"/></linearGradient>
        <linearGradient id="_Linear8" x1="0" y1="0" x2="1" y2="0" gradientUnits="userSpaceOnUse" gradientTransform="matrix(63.6074,0,0,63.6074,152.038,71.5259)"><stop offset="0%" style="stop-color:rgb(250,58,0);stop-opacity:1"/><stop offset="100%" style="stop-color:rgb(255,0,0);stop-opacity:1"/></linearGradient>
    </defs>
</svg>
